# xmcd
#
# Track frame offsets: 
#        150
#        25616
#        45808
#        65399
#        89659
#        111764
#        130644
#        148968
#        177736
#        206891
#
# Disc length: 3091 seconds
#
# Revision: 0
# Processed by: cddbd v1.5.2PL0 Copyright (c) Steve Scherf et al.
# Submitted via: ExactAudioCopy v0.95b4
#
DISCID=8e0c110a
DTITLE=Vini and the Demons - Vini and the Demons
DYEAR=2004
DGENRE=Blues
TTITLE0=Possession Blues
TTITLE1=I Don't Want You
TTITLE2=You Go Your Way
TTITLE3=Please Shake Your Ass for Me
TTITLE4=I've Got to Be With You Tonight
TTITLE5=Beautiful Poison
TTITLE6=Sick Bed Blues
TTITLE7=Sittin' on Top of the World
TTITLE8=I Don't Want to Go to Heaven
TTITLE9=Blues for the Android
EXTD=
EXTT0=
EXTT1=
EXTT2=
EXTT3=
EXTT4=
EXTT5=
EXTT6=
EXTT7=
EXTT8=
EXTT9=
PLAYORDER=
